HIERARCHY
ROOT Hips
{
	OFFSET	0.00	0.00	0.00
	CHANNELS 6 Xposition Yposition Zposition Zrotation Xrotation Yrotation
	JOINT LeftUpLeg
	{
		OFFSET	 0.126116	-0.014019	-0.065224
		CHANNELS 3 Zrotation Xrotation Yrotation
		JOINT LeftLeg
		{
			OFFSET	 0.000000	 0.000000	 0.569914
			CHANNELS 3 Zrotation Xrotation Yrotation
			JOINT LeftFoot
			{
				OFFSET	 0.000000	 0.000000	 0.544423
				CHANNELS 3 Zrotation Xrotation Yrotation
				JOINT LeftToeBase
				{
					OFFSET	 0.000000	 0.000000	 0.207117
					CHANNELS 3 Zrotation Xrotation Yrotation
					End Site
					{
						OFFSET	 0.000000	 0.000000	 0.207117
					}
				}
			}
		}
	}
	JOINT RightUpLeg
	{
		OFFSET	-0.124023	-0.008373	-0.065224
		CHANNELS 3 Zrotation Xrotation Yrotation
		JOINT RightLeg
		{
			OFFSET	 0.000000	 0.000000	 0.570047
			CHANNELS 3 Zrotation Xrotation Yrotation
			JOINT RightFoot
			{
				OFFSET	 0.000000	 0.000000	 0.544354
				CHANNELS 3 Zrotation Xrotation Yrotation
				JOINT RightToeBase
				{
					OFFSET	 0.000000	 0.000000	 0.207540
					CHANNELS 3 Zrotation Xrotation Yrotation
					End Site
					{
						OFFSET	 0.000000	 0.000000	 0.207540
					}
				}
			}
		}
	}
	JOINT Spine
	{
		OFFSET	 0.000184	-0.007763	 0.117403
		CHANNELS 3 Zrotation Xrotation Yrotation
		JOINT Spine1
		{
			OFFSET	 0.000000	 0.000000	 0.137269
			CHANNELS 3 Zrotation Xrotation Yrotation
			JOINT Spine2
			{
				OFFSET	 0.000000	 0.000000	 0.156879
				CHANNELS 3 Zrotation Xrotation Yrotation
				JOINT LeftShoulder
				{
					OFFSET	 0.080501	-0.002496	 0.160144
					CHANNELS 3 Zrotation Xrotation Yrotation
					JOINT LeftArm
					{
						OFFSET	 0.000000	 0.000000	 0.164363
						CHANNELS 3 Zrotation Xrotation Yrotation
						JOINT LeftForeArm
						{
							OFFSET	 0.000000	 0.000000	 0.364576
							CHANNELS 3 Zrotation Xrotation Yrotation
							JOINT LeftHand
							{
								OFFSET	 0.000000	 0.000000	 0.360812
								CHANNELS 3 Zrotation Xrotation Yrotation
								JOINT LeftHandIndex1
								{
									OFFSET	 0.000000	 0.000000	 0.086006
									CHANNELS 3 Zrotation Xrotation Yrotation
									JOINT LeftHandIndex2
									{
										OFFSET	 0.000000	 0.000000	 0.047236
										CHANNELS 3 Zrotation Xrotation Yrotation
										JOINT LeftHandIndex3
										{
											OFFSET	-0.004284	-0.000551	 0.038166
											CHANNELS 3 Zrotation Xrotation Yrotation
											End Site
											{
												OFFSET	-0.004284	-0.000551	 0.038166
											}
										}
									}
								}
							}
						}
					}
				}
				JOINT Neck
				{
					OFFSET	 0.000000	 0.000000	 0.176489
					CHANNELS 3 Zrotation Xrotation Yrotation
					JOINT Head
					{
						OFFSET	 0.000000	-0.001747	 0.077940
						CHANNELS 3 Zrotation Xrotation Yrotation
						End Site
						{
							OFFSET	 0.000000	-0.001747	 0.077940
						}
					}
				}
				JOINT RightShoulder
				{
					OFFSET	-0.080363	 0.000306	 0.159706
					CHANNELS 3 Zrotation Xrotation Yrotation
					JOINT RightArm
					{
						OFFSET	 0.000000	 0.000000	 0.164196
						CHANNELS 3 Zrotation Xrotation Yrotation
						JOINT RightForeArm
						{
							OFFSET	 0.000000	 0.000000	 0.365611
							CHANNELS 3 Zrotation Xrotation Yrotation
							JOINT RightHand
							{
								OFFSET	 0.000000	 0.000000	 0.360648
								CHANNELS 3 Zrotation Xrotation Yrotation
								JOINT RightHandIndex1
								{
									OFFSET	 0.000000	 0.000000	 0.069977
									CHANNELS 3 Zrotation Xrotation Yrotation
									JOINT RightHandIndex2
									{
										OFFSET	 0.000000	 0.000000	 0.052305
										CHANNELS 3 Zrotation Xrotation Yrotation
										JOINT RightHandIndex3
										{
											OFFSET	 0.009002	-0.000782	 0.042196
											CHANNELS 3 Zrotation Xrotation Yrotation
											End Site
											{
												OFFSET	 0.009002	-0.000782	 0.042196
											}
										}
									}
								}
							}
						}
					}
				}
			}
		}
	}
}
MOTION
Frames:    6
Frame Time: 0.03333334
 5.826612	-0.389821	 0.478228	 171.576300	 4.035729	-0.926761	 9.655288	 17.648780	-176.280900	-5.922913	-11.624510	 1.535842	-14.697040	 89.139290	 18.150530	-2.287420	 40.909000	-0.300274	 4.330948	-45.852800	 179.896200	-0.542659	-42.823880	 3.393243	-176.817700	 83.950200	-178.752500	 2.398203	 24.587500	-0.080310	-2.101104	 2.032277	 2.730104	-2.831433	-5.626691	 0.945262	-2.959108	-9.643144	-1.102386	-91.776180	 78.527400	 180.000000	 41.940010	 62.131670	-57.179260	-6.559939	-4.587751	-27.283110	 2.405823	-26.647640	-6.000452	-3.812334	 37.924440	-2.927599	-2.450526	 36.184240	 0.754587	-1.378229	 35.397820	-2.634230	-0.205575	 4.915189	-2.347807	-0.574312	-23.418540	-2.688106	 89.782090	 78.203890	-180.000000	-30.703330	 73.050290	 34.463980	 3.918055	-6.528482	 19.944930	-9.840343	-27.562440	 10.758530	 6.437017	 35.671460	-0.771858	 2.830251	 35.756010	-7.813440	-2.350882	 35.473990	 5.254307
 5.832514	-0.347819	 0.477250	 172.481100	 4.217962	-1.242789	 9.090412	 19.329890	-176.452800	-5.343551	-11.624060	 1.539405	-3.293852	 88.573570	 6.766137	-2.253854	 43.457900	-0.372544	 4.843216	-45.416140	-179.198200	 0.188200	-42.079050	 4.025713	-175.593500	 85.556350	-179.240600	 2.377401	 29.904910	 0.033143	-2.316445	 1.811558	 2.622805	-3.063513	-5.723600	 0.771895	-3.089692	-9.599795	-1.190541	-91.776180	 78.527400	 180.000000	 43.456390	 62.705490	-58.695770	-6.223152	-4.572280	-25.332590	 2.915520	-26.732600	-5.998827	-3.812334	 37.924440	-2.927599	-2.450526	 36.184240	 0.754587	-1.378229	 35.397820	-2.634230	-0.384632	 5.192202	-2.294215	-0.709090	-23.772750	-2.690573	 89.782120	 78.203870	 180.000000	-29.643660	 73.503040	 32.764900	 3.857458	-6.409649	 19.181980	-10.104370	-27.638940	 10.756820	 6.437017	 35.671460	-0.771858	 2.830251	 35.756010	-7.813440	-2.350882	 35.473990	 5.254307
 5.840484	-0.299563	 0.474441	 173.227300	 4.457592	-1.441301	 8.655696	 21.195360	-176.972000	-4.607804	-11.620220	 1.568676	 2.896006	 87.076640	 0.765554	-2.199512	 46.847350	-0.477226	 5.310688	-44.533310	-178.507800	 1.088648	-42.935440	 4.959811	-175.371800	 87.439670	-178.745900	 2.380858	 29.211950	 0.017910	-2.545234	 1.499916	 2.345601	-3.264938	-5.890369	 0.551492	-3.133420	-9.540449	-1.279898	-91.776180	 78.527400	-180.000000	 44.751870	 63.872960	-59.557990	-6.243088	-4.512288	-23.165750	 3.475684	-26.877640	-5.996420	-3.812334	 37.924440	-2.927599	-2.450526	 36.184240	 0.754587	-1.378229	 35.397820	-2.634230	-0.565024	 5.084593	-2.222144	-0.817604	-23.606550	-2.534256	 89.782140	 78.203830	 180.000000	-28.246840	 74.085250	 30.799660	 3.978074	-6.317557	 18.524680	-10.369310	-27.767850	 10.757450	 6.437017	 35.671460	-0.771858	 2.830251	 35.756010	-7.813440	-2.350882	 35.473990	 5.254307
 5.848909	-0.253132	 0.474402	 173.721600	 4.492656	-1.469046	 8.451313	 22.890400	-177.750400	-3.843586	-11.613140	 1.620849	 4.728259	 84.433490	-0.689688	-2.129533	 50.336140	-0.597821	 4.965627	-43.497520	-178.669400	 3.797559	-44.504330	 6.923777	 8.031532	 89.786930	-0.669368	 2.375883	 30.194490	 0.039560	-2.746445	 1.217034	 1.818957	-3.371148	-6.110246	 0.365441	-3.047231	-9.581635	-1.345952	-91.776170	 78.527420	-180.000000	 45.305650	 65.411310	-59.164060	-6.586203	-4.435292	-21.308620	 3.978539	-27.053580	-5.993804	-3.812334	 37.924440	-2.927599	-2.450526	 36.184240	 0.754587	-1.378229	 35.397820	-2.634230	-0.724957	 4.867157	-2.113127	-0.903791	-23.228060	-2.309267	 89.782120	 78.203870	 180.000000	-26.750330	 74.589220	 28.740130	 4.158497	-6.244027	 18.056940	-10.534130	-27.920300	 10.764230	 6.437017	 35.671460	-0.771858	 2.830251	 35.756010	-7.813440	-2.350882	 35.473990	 5.254307
 5.858781	-0.200423	 0.477063	 173.962100	 4.390635	-1.325248	 8.572000	 24.707200	-178.754900	-3.205962	-11.603050	 1.692134	 5.014662	 79.671620	-0.343978	-2.064343	 52.992150	-0.700802	 4.013854	-42.228650	-179.362800	 6.422476	-46.255370	 8.641385	 5.252196	 87.085910	 3.142046	 2.371194	 31.045790	 0.058569	-2.734459	 0.811776	 1.078735	-3.266082	-6.317040	 0.128518	-2.997429	-9.652579	-1.262660	-91.776180	 78.527400	-180.000000	 45.040650	 67.471250	-57.494720	-7.425643	-4.314875	-19.600480	 4.379919	-27.284400	-5.992885	-3.812334	 37.924440	-2.927599	-2.450526	 36.184240	 0.754587	-1.378229	 35.397820	-2.634230	-0.901871	 4.777924	-1.959028	-0.972248	-22.941450	-1.969226	 89.782100	 78.203870	-180.000000	-25.064470	 75.043500	 26.427070	 4.381539	-6.170894	 17.681710	-10.613250	-28.122130	 10.779750	 6.437017	 35.671460	-0.771858	 2.830251	 35.756010	-7.813440	-2.350882	 35.473990	 5.254307
 5.870304	-0.144445	 0.481841	 174.064100	 4.311719	-1.353356	 8.896715	 26.424170	-179.565500	-3.256378	-11.604030	 1.685117	 4.126353	 72.361150	 1.065165	-2.068515	 52.835610	-0.694419	 3.540269	-40.784820	 179.992700	 6.212536	-47.851250	 8.530984	 5.051064	 85.813940	 2.706852	 2.376131	 30.149720	 0.038557	-2.435665	 0.048673	 0.735121	-2.974431	-6.412157	-0.038890	-3.067938	-9.520749	-1.040835	-91.776180	 78.527400	-180.000000	 43.589130	 69.694630	-54.201140	-8.763045	-4.130686	-18.403990	 4.391371	-27.554940	-5.999216	-3.812334	 37.924440	-2.927599	-2.450526	 36.184240	 0.754587	-1.378229	 35.397820	-2.634230	-0.973765	 4.713101	-1.874969	-0.970330	-22.541600	-1.693786	 89.782100	 78.203870	-180.000000	-24.248390	 75.366050	 25.275940	 4.480453	-6.133792	 17.432050	-10.680190	-28.372850	 10.799620	 6.437017	 35.671460	-0.771858	 2.830251	 35.756010	-7.813440	-2.350882	 35.473990	 5.254307
